# xmcd
# Track frame offsets:
# 150
# 17050
# 32250
# 50370
# 64692
# 83245
# 99116
# 122600
# 139150
# 155691
# 171139
# 187819
# 204686
#
# Disc length: 2802 seconds
# Revision: 2
# Processed by: cddbd v1.5.2PL0 Copyright (c) Steve Scherf et al.
# Submitted via: VisiTrax 2.10.0.248 - For more info visit www.synapsa.com
#
DISCID=9f0af00d
DTITLE=Cash, Rosanne - Black Cadillac
DYEAR=2006
DGENRE=Country
TTITLE0=Black Cadillac
TTITLE1=Radio Operator
TTITLE2=I Was Watching You
TTITLE3=Burn Down This Town
TTITLE4=God Is In The Roses
TTITLE5=House On The Lake
TTITLE6=The World Unseen
TTITLE7=Like Fugitives
TTITLE8=Dreams Are Not My Home
TTITLE9=Like A Wave
TTITLE10=World Without Sound
TTITLE11=The Good Intent
TTITLE12=0.71
EXTD=(c)2006 Capitol Records - EMI\nupc 094634809627
EXTT0=
EXTT1=
EXTT2=
EXTT3=
EXTT4=
EXTT5=
EXTT6=
EXTT7=
EXTT8=
EXTT9=
EXTT10=
EXTT11=
EXTT12=
PLAYORDER=
